# xmcd
#
# Track frame offsets:
#	150
#	4662
#	20828
#	42158
#	62599
#	83463
#	113129
#	147399
#	162636
#	177087
#	186247
#	203303
#	229770
#	247219
#	267248
#
# Disc length: 4044 seconds
#
# Revision: 3
# Processed by: cddbd v1.5.2PL0 Copyright (c) Steve Scherf et al.
# Submitted via: EZCDAudioConverter 2.1.7.1
#
DISCID=c70fca0f
DTITLE=V/A - Return To The Dark Side Of The Moon/Wish You Were Here Again
DYEAR=2011
DGENRE=MOJO
TTITLE0=Gallops - Speak To Me
TTITLE1=Our Broken Garden - Breathe
TTITLE2=The Oscillation - On The Run
TTITLE3=Wolf People - Time
TTITLE4=The Last Hurrah!! - The Great Gig In The Sky
TTITLE5=Pineapple Thief - Money
TTITLE6=Doug Paisley featuring Garth and Maud Hudson - Us And Them
TTITLE7=Matt Berry - Any Colour You Like
TTITLE8=Neville Skelly - Brain Damage
TTITLE9=Of Arrowe Hill - Eclipse
TTITLE10=Malachai - Shine On You Crazy Diamond (Part 1)
TTITLE11=Beak> - Welcome To The Machine
TTITLE12=John Foxx and The Maths - Have A Cigar
TTITLE13=Lia Ices - Wish You Were Here
TTITLE14=The Orb - Shine On You Crazy Diamond (Part 2)
EXTD=
EXTT0=
EXTT1=
EXTT2=
EXTT3=
EXTT4=
EXTT5=
EXTT6=
EXTT7=
EXTT8=
EXTT9=
EXTT10=
EXTT11=
EXTT12=
EXTT13=
EXTT14=
PLAYORDER=
